# xmcd
#
# Track frame offsets:
#	150
#	13237
#	25880
#	43167
#	59955
#	77355
#	87050
#	99190
#	112490
#	124235
#	136560
#	147877
#
# Disc length: 2190 seconds
#
# Revision: 2
# Processed by: cddbd v1.5.2PL0 Copyright (c) Steve Scherf et al.
# Submitted via: EasyCDDAExtractor 10.0.3.1
#
DISCID=a1088c0c
DTITLE=펄 시스터즈 - 펄 특선집
DYEAR=1989
DGENRE=
TTITLE0=싫어
TTITLE1=님아
TTITLE2=커피 한잔
TTITLE3=떠나야할 그 사람
TTITLE4=기다리겠어
TTITLE5=가난한 연인
TTITLE6=첫사랑
TTITLE7=애모의 노래
TTITLE8=장미와 촛불
TTITLE9=눈동자
TTITLE10=두 그림자
TTITLE11=오 천사여
EXTD=
EXTT0=
EXTT1=
EXTT2=
EXTT3=
EXTT4=
EXTT5=
EXTT6=
EXTT7=
EXTT8=
EXTT9=
EXTT10=
EXTT11=
PLAYORDER=
